<svg width="239" height="612" viewBox="0 0 239 612" fill="none" xmlns="http://www.w3.org/2000/svg">
<path d="M214.297 325.095L0.222656 221V260.387C1.55394 274.744 4.80928 280.315 17.5768 285.177L238.223 394V356.042C236.742 340.76 231.859 333.844 214.297 325.095Z" fill="#B63075"/>
<path d="M134.64 0H92.812C115.81 64.691 129.967 100.825 156.784 165.106C166.655 178.044 173.138 183.849 188.77 188.004H237.98L166.626 27.7185C156.289 7.97924 149.312 1.97668 134.64 0Z" fill="#4BF2E8"/>
<path d="M111.85 83.2928C111.85 71.3939 83.8878 9.51915 83.8878 9.51915C67.8242 8.32927 42.6767 93.9582 0 188.004H47.4149C59.0321 183.209 64.7436 178.019 74.1617 165.396C81.4563 154.687 111.85 88.0524 111.85 83.2928Z" fill="#009A9C"/>
<path d="M103.34 611.607H145.168C122.17 546.916 108.013 510.782 81.1958 446.501C71.3248 433.564 64.8418 427.759 49.2097 423.604H0.000396729L71.354 583.889C81.6907 603.628 88.668 609.631 103.34 611.607Z" fill="#4BF2E8"/>
<path d="M126.129 528.314C126.129 540.213 154.092 602.088 154.092 602.088C170.155 603.278 195.303 517.649 237.979 423.603H190.565C178.947 428.399 173.236 433.588 163.818 446.211C156.523 456.921 126.129 523.555 126.129 528.314Z" fill="#009A9C"/>
</svg>
